<?xml version="1.0" encoding="UTF-8"?>
<svg viewBox="0 0 1400 160" xmlns="http://www.w3.org/2000/svg" aria-hidden="true">

  <!-- Tutto outline, sfondo trasparente, molto tenue -->

  <!-- FAR LAYER — edifici lontani, linee leggerissime -->
  <rect x="0"    y="130" width="55"  height="30" fill="none" stroke="#d8d8d8" stroke-width="0.8"/>
  <rect x="60"   y="110" width="75"  height="50" fill="none" stroke="#d8d8d8" stroke-width="0.8"/>
  <rect x="140"  y="120" width="45"  height="40" fill="none" stroke="#d8d8d8" stroke-width="0.8"/>
  <rect x="190"  y="100" width="85"  height="60" fill="none" stroke="#d8d8d8" stroke-width="0.8"/>
  <rect x="280"  y="115" width="55"  height="45" fill="none" stroke="#d8d8d8" stroke-width="0.8"/>
  <rect x="340"  y="105" width="65"  height="55" fill="none" stroke="#d8d8d8" stroke-width="0.8"/>
  <rect x="410"  y="112" width="50"  height="48" fill="none" stroke="#d8d8d8" stroke-width="0.8"/>
  <rect x="680"  y="108" width="75"  height="52" fill="none" stroke="#d8d8d8" stroke-width="0.8"/>
  <rect x="760"  y="98"  width="55"  height="62" fill="none" stroke="#d8d8d8" stroke-width="0.8"/>
  <rect x="820"  y="118" width="65"  height="42" fill="none" stroke="#d8d8d8" stroke-width="0.8"/>
  <rect x="890"  y="105" width="50"  height="55" fill="none" stroke="#d8d8d8" stroke-width="0.8"/>
  <rect x="1170" y="112" width="65"  height="48" fill="none" stroke="#d8d8d8" stroke-width="0.8"/>
  <rect x="1240" y="122" width="70"  height="38" fill="none" stroke="#d8d8d8" stroke-width="0.8"/>
  <rect x="1315" y="105" width="85"  height="55" fill="none" stroke="#d8d8d8" stroke-width="0.8"/>

  <!-- MID LAYER — edifici medi, outline più visibile -->
  <rect x="15"   y="82"  width="50"  height="78" fill="none" stroke="#c8c8c8" stroke-width="1"/>
  <rect x="70"   y="62"  width="65"  height="98" fill="none" stroke="#c8c8c8" stroke-width="1"/>
  <rect x="140"  y="75"  width="50"  height="85" fill="none" stroke="#c8c8c8" stroke-width="1"/>
  <rect x="195"  y="52"  width="80"  height="108" fill="none" stroke="#c8c8c8" stroke-width="1"/>
  <rect x="280"  y="68"  width="52"  height="92" fill="none" stroke="#c8c8c8" stroke-width="1"/>
  <rect x="336"  y="58"  width="62"  height="102" fill="none" stroke="#c8c8c8" stroke-width="1"/>
  <rect x="402"  y="76"  width="48"  height="84" fill="none" stroke="#c8c8c8" stroke-width="1"/>
  <rect x="1000" y="65"  width="52"  height="95" fill="none" stroke="#c8c8c8" stroke-width="1"/>
  <rect x="1057" y="55"  width="68"  height="105" fill="none" stroke="#c8c8c8" stroke-width="1"/>
  <rect x="1130" y="70"  width="48"  height="90" fill="none" stroke="#c8c8c8" stroke-width="1"/>
  <rect x="1183" y="58"  width="58"  height="102" fill="none" stroke="#c8c8c8" stroke-width="1"/>
  <rect x="1246" y="74"  width="52"  height="86" fill="none" stroke="#c8c8c8" stroke-width="1"/>

  <!-- NEAR LAYER — edifici in primo piano, outline scuro tenue -->
  <rect x="0"    y="96"  width="32"  height="64" fill="none" stroke="#bbb" stroke-width="1.2"/>
  <rect x="37"   y="44"  width="58"  height="116" fill="none" stroke="#bbb" stroke-width="1.2"/>
  <!-- Finestre piccole -->
  <rect x="46"  y="56"  width="8" height="6" fill="none" stroke="#ccc" stroke-width="0.7"/>
  <rect x="60"  y="56"  width="8" height="6" fill="none" stroke="#ccc" stroke-width="0.7"/>
  <rect x="74"  y="56"  width="8" height="6" fill="none" stroke="#ccc" stroke-width="0.7"/>
  <rect x="46"  y="70"  width="8" height="6" fill="none" stroke="#ccc" stroke-width="0.7"/>
  <rect x="60"  y="70"  width="8" height="6" fill="#F07800" stroke="none" opacity="0.25"/>
  <rect x="74"  y="70"  width="8" height="6" fill="none" stroke="#ccc" stroke-width="0.7"/>
  <rect x="46"  y="84"  width="8" height="6" fill="none" stroke="#ccc" stroke-width="0.7"/>
  <rect x="60"  y="84"  width="8" height="6" fill="none" stroke="#ccc" stroke-width="0.7"/>
  <rect x="74"  y="84"  width="8" height="6" fill="none" stroke="#ccc" stroke-width="0.7"/>
  <rect x="46"  y="98"  width="8" height="6" fill="none" stroke="#ccc" stroke-width="0.7"/>
  <rect x="60"  y="98"  width="8" height="6" fill="none" stroke="#ccc" stroke-width="0.7"/>
  <rect x="74"  y="98"  width="8" height="6" fill="none" stroke="#ccc" stroke-width="0.7"/>

  <rect x="100"  y="68"  width="78"  height="92" fill="none" stroke="#bbb" stroke-width="1.2"/>
  <rect x="110" y="78"  width="9" height="7" fill="none" stroke="#ccc" stroke-width="0.7"/>
  <rect x="125" y="78"  width="9" height="7" fill="none" stroke="#ccc" stroke-width="0.7"/>
  <rect x="140" y="78"  width="9" height="7" fill="none" stroke="#ccc" stroke-width="0.7"/>
  <rect x="155" y="78"  width="9" height="7" fill="none" stroke="#ccc" stroke-width="0.7"/>
  <rect x="110" y="93"  width="9" height="7" fill="none" stroke="#ccc" stroke-width="0.7"/>
  <rect x="125" y="93"  width="9" height="7" fill="#F07800" stroke="none" opacity="0.2"/>
  <rect x="140" y="93"  width="9" height="7" fill="none" stroke="#ccc" stroke-width="0.7"/>
  <rect x="155" y="93"  width="9" height="7" fill="none" stroke="#ccc" stroke-width="0.7"/>
  <rect x="110" y="108" width="9" height="7" fill="none" stroke="#ccc" stroke-width="0.7"/>
  <rect x="125" y="108" width="9" height="7" fill="none" stroke="#ccc" stroke-width="0.7"/>
  <rect x="140" y="108" width="9" height="7" fill="none" stroke="#ccc" stroke-width="0.7"/>
  <rect x="155" y="108" width="9" height="7" fill="none" stroke="#ccc" stroke-width="0.7"/>

  <!-- TORRE CENTRALE — più alta, outline sottile -->
  <rect x="470"  y="4"   width="95"  height="156" fill="none" stroke="#b0b0b0" stroke-width="1.2"/>
  <!-- Finestre torre -->
  <rect x="481" y="14"  width="9" height="7" fill="none" stroke="#ccc" stroke-width="0.7"/>
  <rect x="496" y="14"  width="9" height="7" fill="none" stroke="#ccc" stroke-width="0.7"/>
  <rect x="511" y="14"  width="9" height="7" fill="#F07800" stroke="none" opacity="0.2"/>
  <rect x="526" y="14"  width="9" height="7" fill="none" stroke="#ccc" stroke-width="0.7"/>
  <rect x="541" y="14"  width="9" height="7" fill="none" stroke="#ccc" stroke-width="0.7"/>
  <rect x="481" y="29"  width="9" height="7" fill="none" stroke="#ccc" stroke-width="0.7"/>
  <rect x="496" y="29"  width="9" height="7" fill="none" stroke="#ccc" stroke-width="0.7"/>
  <rect x="511" y="29"  width="9" height="7" fill="none" stroke="#ccc" stroke-width="0.7"/>
  <rect x="526" y="29"  width="9" height="7" fill="none" stroke="#ccc" stroke-width="0.7"/>
  <rect x="541" y="29"  width="9" height="7" fill="none" stroke="#ccc" stroke-width="0.7"/>
  <rect x="481" y="44"  width="9" height="7" fill="none" stroke="#ccc" stroke-width="0.7"/>
  <rect x="496" y="44"  width="9" height="7" fill="#F07800" stroke="none" opacity="0.2"/>
  <rect x="511" y="44"  width="9" height="7" fill="none" stroke="#ccc" stroke-width="0.7"/>
  <rect x="526" y="44"  width="9" height="7" fill="none" stroke="#ccc" stroke-width="0.7"/>
  <rect x="541" y="44"  width="9" height="7" fill="none" stroke="#ccc" stroke-width="0.7"/>
  <rect x="481" y="59"  width="9" height="7" fill="none" stroke="#ccc" stroke-width="0.7"/>
  <rect x="496" y="59"  width="9" height="7" fill="none" stroke="#ccc" stroke-width="0.7"/>
  <rect x="511" y="59"  width="9" height="7" fill="none" stroke="#ccc" stroke-width="0.7"/>
  <rect x="526" y="59"  width="9" height="7" fill="none" stroke="#ccc" stroke-width="0.7"/>
  <rect x="541" y="59"  width="9" height="7" fill="#F07800" stroke="none" opacity="0.2"/>
  <rect x="481" y="74"  width="9" height="7" fill="none" stroke="#ccc" stroke-width="0.7"/>
  <rect x="496" y="74"  width="9" height="7" fill="none" stroke="#ccc" stroke-width="0.7"/>
  <rect x="511" y="74"  width="9" height="7" fill="none" stroke="#ccc" stroke-width="0.7"/>
  <rect x="526" y="74"  width="9" height="7" fill="none" stroke="#ccc" stroke-width="0.7"/>
  <rect x="541" y="74"  width="9" height="7" fill="none" stroke="#ccc" stroke-width="0.7"/>
  <rect x="481" y="89"  width="9" height="7" fill="#F07800" stroke="none" opacity="0.2"/>
  <rect x="496" y="89"  width="9" height="7" fill="none" stroke="#ccc" stroke-width="0.7"/>
  <rect x="511" y="89"  width="9" height="7" fill="none" stroke="#ccc" stroke-width="0.7"/>
  <rect x="526" y="89"  width="9" height="7" fill="none" stroke="#ccc" stroke-width="0.7"/>
  <rect x="541" y="89"  width="9" height="7" fill="none" stroke="#ccc" stroke-width="0.7"/>
  <rect x="481" y="104" width="9" height="7" fill="none" stroke="#ccc" stroke-width="0.7"/>
  <rect x="496" y="104" width="9" height="7" fill="none" stroke="#ccc" stroke-width="0.7"/>
  <rect x="511" y="104" width="9" height="7" fill="#F07800" stroke="none" opacity="0.2"/>
  <rect x="526" y="104" width="9" height="7" fill="none" stroke="#ccc" stroke-width="0.7"/>
  <rect x="541" y="104" width="9" height="7" fill="none" stroke="#ccc" stroke-width="0.7"/>
  <rect x="481" y="119" width="9" height="7" fill="none" stroke="#ccc" stroke-width="0.7"/>
  <rect x="496" y="119" width="9" height="7" fill="none" stroke="#ccc" stroke-width="0.7"/>
  <rect x="511" y="119" width="9" height="7" fill="none" stroke="#ccc" stroke-width="0.7"/>
  <rect x="526" y="119" width="9" height="7" fill="none" stroke="#ccc" stroke-width="0.7"/>
  <rect x="541" y="119" width="9" height="7" fill="none" stroke="#ccc" stroke-width="0.7"/>
  <rect x="481" y="134" width="9" height="7" fill="none" stroke="#ccc" stroke-width="0.7"/>
  <rect x="496" y="134" width="9" height="7" fill="#F07800" stroke="none" opacity="0.2"/>
  <rect x="511" y="134" width="9" height="7" fill="none" stroke="#ccc" stroke-width="0.7"/>
  <rect x="526" y="134" width="9" height="7" fill="none" stroke="#ccc" stroke-width="0.7"/>
  <rect x="541" y="134" width="9" height="7" fill="none" stroke="#ccc" stroke-width="0.7"/>
  <rect x="481" y="149" width="9" height="7" fill="none" stroke="#ccc" stroke-width="0.7"/>
  <rect x="496" y="149" width="9" height="7" fill="none" stroke="#ccc" stroke-width="0.7"/>
  <rect x="511" y="149" width="9" height="7" fill="none" stroke="#ccc" stroke-width="0.7"/>
  <rect x="526" y="149" width="9" height="7" fill="none" stroke="#ccc" stroke-width="0.7"/>
  <rect x="541" y="149" width="9" height="7" fill="none" stroke="#ccc" stroke-width="0.7"/>

  <!-- EDIFICIO IN COSTRUZIONE con ponteggio -->
  <rect x="770"  y="74"  width="115" height="86" fill="none" stroke="#bbb" stroke-width="1.2"/>
  <!-- Finestre base completata -->
  <rect x="781" y="83"  width="9" height="7" fill="none" stroke="#ccc" stroke-width="0.7"/>
  <rect x="797" y="83"  width="9" height="7" fill="none" stroke="#ccc" stroke-width="0.7"/>
  <rect x="813" y="83"  width="9" height="7" fill="#F07800" stroke="none" opacity="0.2"/>
  <rect x="829" y="83"  width="9" height="7" fill="none" stroke="#ccc" stroke-width="0.7"/>
  <rect x="845" y="83"  width="9" height="7" fill="none" stroke="#ccc" stroke-width="0.7"/>
  <rect x="861" y="83"  width="9" height="7" fill="none" stroke="#ccc" stroke-width="0.7"/>
  <rect x="781" y="98"  width="9" height="7" fill="none" stroke="#ccc" stroke-width="0.7"/>
  <rect x="797" y="98"  width="9" height="7" fill="#F07800" stroke="none" opacity="0.2"/>
  <rect x="813" y="98"  width="9" height="7" fill="none" stroke="#ccc" stroke-width="0.7"/>
  <rect x="829" y="98"  width="9" height="7" fill="none" stroke="#ccc" stroke-width="0.7"/>
  <rect x="845" y="98"  width="9" height="7" fill="none" stroke="#ccc" stroke-width="0.7"/>
  <rect x="861" y="98"  width="9" height="7" fill="none" stroke="#ccc" stroke-width="0.7"/>
  <!-- Ponteggio -->
  <line x1="773" y1="20" x2="773" y2="74" stroke="#ccc" stroke-width="0.8"/>
  <line x1="800" y1="12" x2="800" y2="74" stroke="#ccc" stroke-width="0.8"/>
  <line x1="827" y1="16" x2="827" y2="74" stroke="#ccc" stroke-width="0.8"/>
  <line x1="854" y1="8"  x2="854" y2="74" stroke="#ccc" stroke-width="0.8"/>
  <line x1="881" y1="12" x2="881" y2="74" stroke="#ccc" stroke-width="0.8"/>
  <line x1="773" y1="20" x2="884" y2="20" stroke="#ccc" stroke-width="0.8"/>
  <line x1="773" y1="38" x2="884" y2="38" stroke="#ccc" stroke-width="0.8"/>
  <line x1="773" y1="56" x2="884" y2="56" stroke="#ccc" stroke-width="0.8"/>
  <line x1="773" y1="20" x2="884" y2="74" stroke="#ddd" stroke-width="0.7"/>
  <line x1="884" y1="20" x2="773" y2="74" stroke="#ddd" stroke-width="0.7"/>

  <!-- GRUE — outline arancione tenue -->
  <line x1="935" y1="0"   x2="935" y2="160" stroke="#F07800" stroke-width="1.2" opacity="0.35"/>
  <line x1="875" y1="4"   x2="935" y2="4"   stroke="#F07800" stroke-width="1.2" opacity="0.35"/>
  <line x1="935" y1="4"   x2="1095" y2="4"  stroke="#F07800" stroke-width="1.2" opacity="0.35"/>
  <rect x="868" y="4"   width="18"  height="14" fill="none" stroke="#F07800" stroke-width="0.8" opacity="0.3"/>
  <line x1="935" y1="30" x2="985"   y2="4"   stroke="#F07800" stroke-width="0.8" opacity="0.25"/>
  <line x1="935" y1="50" x2="1045"  y2="4"   stroke="#F07800" stroke-width="0.8" opacity="0.25"/>
  <line x1="935" y1="70" x2="1090"  y2="4"   stroke="#F07800" stroke-width="0.8" opacity="0.25"/>
  <rect x="988" y="2"   width="12"  height="4" fill="#F07800" opacity="0.25"/>
  <line x1="994" y1="6"  x2="994"   y2="55"  stroke="#aaa" stroke-width="0.8" opacity="0.4"/>
  <line x1="935" y1="36" x2="940" y2="70"  stroke="#F07800" stroke-width="0.8" opacity="0.2"/>
  <line x1="940" y1="36" x2="935" y2="70"  stroke="#F07800" stroke-width="0.8" opacity="0.2"/>
  <line x1="935" y1="70" x2="940" y2="110" stroke="#F07800" stroke-width="0.8" opacity="0.2"/>
  <line x1="940" y1="70" x2="935" y2="110" stroke="#F07800" stroke-width="0.8" opacity="0.2"/>
  <line x1="935" y1="110" x2="940" y2="150" stroke="#F07800" stroke-width="0.8" opacity="0.2"/>
  <line x1="940" y1="110" x2="935" y2="150" stroke="#F07800" stroke-width="0.8" opacity="0.2"/>

  <!-- CLUSTER DESTRA -->
  <rect x="1148" y="54"  width="68"  height="106" fill="none" stroke="#bbb" stroke-width="1.2"/>
  <rect x="1158" y="64"  width="9" height="7" fill="none" stroke="#ccc" stroke-width="0.7"/>
  <rect x="1173" y="64"  width="9" height="7" fill="none" stroke="#ccc" stroke-width="0.7"/>
  <rect x="1188" y="64"  width="9" height="7" fill="#F07800" stroke="none" opacity="0.2"/>
  <rect x="1158" y="79"  width="9" height="7" fill="none" stroke="#ccc" stroke-width="0.7"/>
  <rect x="1173" y="79"  width="9" height="7" fill="none" stroke="#ccc" stroke-width="0.7"/>
  <rect x="1188" y="79"  width="9" height="7" fill="none" stroke="#ccc" stroke-width="0.7"/>
  <rect x="1158" y="94"  width="9" height="7" fill="none" stroke="#ccc" stroke-width="0.7"/>
  <rect x="1173" y="94"  width="9" height="7" fill="none" stroke="#ccc" stroke-width="0.7"/>
  <rect x="1188" y="94"  width="9" height="7" fill="none" stroke="#ccc" stroke-width="0.7"/>
  <rect x="1158" y="109" width="9" height="7" fill="none" stroke="#ccc" stroke-width="0.7"/>
  <rect x="1173" y="109" width="9" height="7" fill="#F07800" stroke="none" opacity="0.2"/>
  <rect x="1188" y="109" width="9" height="7" fill="none" stroke="#ccc" stroke-width="0.7"/>

  <rect x="1221" y="76"  width="50"  height="84" fill="none" stroke="#bbb" stroke-width="1.2"/>
  <rect x="1277" y="84"  width="123" height="76" fill="none" stroke="#bbb" stroke-width="1.2"/>
  <rect x="1287" y="93"  width="9" height="7" fill="none" stroke="#ccc" stroke-width="0.7"/>
  <rect x="1302" y="93"  width="9" height="7" fill="none" stroke="#ccc" stroke-width="0.7"/>
  <rect x="1317" y="93"  width="9" height="7" fill="none" stroke="#ccc" stroke-width="0.7"/>
  <rect x="1332" y="93"  width="9" height="7" fill="#F07800" stroke="none" opacity="0.2"/>
  <rect x="1347" y="93"  width="9" height="7" fill="none" stroke="#ccc" stroke-width="0.7"/>
  <rect x="1362" y="93"  width="9" height="7" fill="none" stroke="#ccc" stroke-width="0.7"/>
  <rect x="1377" y="93"  width="9" height="7" fill="none" stroke="#ccc" stroke-width="0.7"/>
  <rect x="1287" y="108" width="9" height="7" fill="none" stroke="#ccc" stroke-width="0.7"/>
  <rect x="1302" y="108" width="9" height="7" fill="none" stroke="#ccc" stroke-width="0.7"/>
  <rect x="1317" y="108" width="9" height="7" fill="none" stroke="#ccc" stroke-width="0.7"/>
  <rect x="1332" y="108" width="9" height="7" fill="none" stroke="#ccc" stroke-width="0.7"/>
  <rect x="1347" y="108" width="9" height="7" fill="none" stroke="#ccc" stroke-width="0.7"/>
  <rect x="1362" y="108" width="9" height="7" fill="#F07800" stroke="none" opacity="0.2"/>
  <rect x="1377" y="108" width="9" height="7" fill="none" stroke="#ccc" stroke-width="0.7"/>

  <!-- Ground line sottilissima -->
  <line x1="0" y1="159" x2="1400" y2="159" stroke="#e0e0e0" stroke-width="1"/>

</svg>
